<svg xmlns="http://www.w3.org/2000/svg" xmlns:xlink="http://www.w3.org/1999/xlink" width="220" height="5" viewBox="0 0 220 5">
  <defs>
    <clipPath id="clip-path">
      <rect width="220" height="5" fill="none"/>
    </clipPath>
  </defs>
  <g id="リピートグリッド_17" data-name="リピートグリッド 17" clip-path="url(#clip-path)">
    <g transform="translate(-947 -2889)">
      <circle id="楕円形_13" data-name="楕円形 13" cx="2" cy="2" r="2" transform="translate(947 2889)" fill="#222"/>
    </g>
    <g transform="translate(-935 -2889)">
      <circle id="楕円形_13-2" data-name="楕円形 13" cx="2" cy="2" r="2" transform="translate(947 2889)" fill="#222"/>
    </g>
    <g transform="translate(-923 -2889)">
      <circle id="楕円形_13-3" data-name="楕円形 13" cx="2" cy="2" r="2" transform="translate(947 2889)" fill="#222"/>
    </g>
    <g transform="translate(-911 -2889)">
      <circle id="楕円形_13-4" data-name="楕円形 13" cx="2" cy="2" r="2" transform="translate(947 2889)" fill="#222"/>
    </g>
    <g transform="translate(-899 -2889)">
      <circle id="楕円形_13-5" data-name="楕円形 13" cx="2" cy="2" r="2" transform="translate(947 2889)" fill="#222"/>
    </g>
    <g transform="translate(-887 -2889)">
      <circle id="楕円形_13-6" data-name="楕円形 13" cx="2" cy="2" r="2" transform="translate(947 2889)" fill="#222"/>
    </g>
    <g transform="translate(-875 -2889)">
      <circle id="楕円形_13-7" data-name="楕円形 13" cx="2" cy="2" r="2" transform="translate(947 2889)" fill="#222"/>
    </g>
    <g transform="translate(-863 -2889)">
      <circle id="楕円形_13-8" data-name="楕円形 13" cx="2" cy="2" r="2" transform="translate(947 2889)" fill="#222"/>
    </g>
    <g transform="translate(-851 -2889)">
      <circle id="楕円形_13-9" data-name="楕円形 13" cx="2" cy="2" r="2" transform="translate(947 2889)" fill="#222"/>
    </g>
    <g transform="translate(-839 -2889)">
      <circle id="楕円形_13-10" data-name="楕円形 13" cx="2" cy="2" r="2" transform="translate(947 2889)" fill="#222"/>
    </g>
    <g transform="translate(-827 -2889)">
      <circle id="楕円形_13-11" data-name="楕円形 13" cx="2" cy="2" r="2" transform="translate(947 2889)" fill="#222"/>
    </g>
    <g transform="translate(-815 -2889)">
      <circle id="楕円形_13-12" data-name="楕円形 13" cx="2" cy="2" r="2" transform="translate(947 2889)" fill="#222"/>
    </g>
    <g transform="translate(-803 -2889)">
      <circle id="楕円形_13-13" data-name="楕円形 13" cx="2" cy="2" r="2" transform="translate(947 2889)" fill="#222"/>
    </g>
    <g transform="translate(-791 -2889)">
      <circle id="楕円形_13-14" data-name="楕円形 13" cx="2" cy="2" r="2" transform="translate(947 2889)" fill="#222"/>
    </g>
    <g transform="translate(-779 -2889)">
      <circle id="楕円形_13-15" data-name="楕円形 13" cx="2" cy="2" r="2" transform="translate(947 2889)" fill="#222"/>
    </g>
    <g transform="translate(-767 -2889)">
      <circle id="楕円形_13-16" data-name="楕円形 13" cx="2" cy="2" r="2" transform="translate(947 2889)" fill="#222"/>
    </g>
    <g transform="translate(-755 -2889)">
      <circle id="楕円形_13-17" data-name="楕円形 13" cx="2" cy="2" r="2" transform="translate(947 2889)" fill="#222"/>
    </g>
    <g transform="translate(-743 -2889)">
      <circle id="楕円形_13-18" data-name="楕円形 13" cx="2" cy="2" r="2" transform="translate(947 2889)" fill="#222"/>
    </g>
    <g transform="translate(-731 -2889)">
      <circle id="楕円形_13-19" data-name="楕円形 13" cx="2" cy="2" r="2" transform="translate(947 2889)" fill="#222"/>
    </g>
  </g>
</svg>
